<svg width="149" height="25" viewBox="0 0 149 25" fill="none" xmlns="http://www.w3.org/2000/svg">
<path d="M42.4424 17.1685C41.8955 17.1685 41.3901 17.1099 40.9263 16.9927C40.4673 16.8755 40.0938 16.7241 39.8057 16.5386L39.9595 15.5059C40.7749 15.9404 41.5757 16.1577 42.3618 16.1577C43.5532 16.1577 44.166 15.7378 44.2002 14.8979C44.2002 14.5415 44.0732 14.2607 43.8193 14.0557C43.5654 13.8506 43.0674 13.6211 42.3252 13.3672L41.7173 13.1548C41.0142 12.9204 40.5112 12.6299 40.2085 12.2832C39.9106 11.9365 39.7593 11.5044 39.7544 10.9868C39.7544 10.3569 40.0059 9.83447 40.5088 9.41943C41.0166 9.00439 41.71 8.79688 42.5889 8.79688C43.4971 8.79688 44.3247 8.97266 45.0718 9.32422L44.7129 10.2617C43.9561 9.94922 43.248 9.79297 42.5889 9.79297C42.0762 9.79297 41.6733 9.89551 41.3804 10.1006C41.0923 10.3008 40.9482 10.584 40.9482 10.9502C40.9482 11.2627 41.0532 11.502 41.2632 11.668C41.4731 11.834 41.8931 12.0244 42.5229 12.2393C42.6841 12.2979 42.8867 12.3662 43.1309 12.4443C43.9414 12.708 44.5151 13.0205 44.8521 13.3818C45.189 13.7383 45.3574 14.2217 45.3574 14.832C45.3477 15.5742 45.0815 16.1504 44.5591 16.5605C44.0366 16.9658 43.3311 17.1685 42.4424 17.1685ZM49.5981 17.1465C48.8071 17.1465 48.2456 16.9536 47.9136 16.5679C47.5815 16.1821 47.4058 15.5596 47.3862 14.7002V9.87354H46.1924L46.2437 9.06787L47.3789 8.96533L47.7964 7.12695L48.6021 7.09766V8.96533H50.8359V9.87354H48.6021V14.4805C48.6021 15.0908 48.6948 15.5205 48.8804 15.7695C49.0659 16.0186 49.3833 16.1431 49.8325 16.1431C49.9937 16.1431 50.3428 16.104 50.8799 16.0259L50.9312 16.9927C50.3501 17.0952 49.9058 17.1465 49.5981 17.1465ZM54.5273 16.1797C55.1084 16.1797 55.6187 16.021 56.0581 15.7036C56.5024 15.3813 56.7881 14.9492 56.915 14.4072V13.0522C56.8906 13.0522 56.7417 13.0645 56.4683 13.0889C56.1997 13.1133 56.0239 13.1279 55.9409 13.1328C54.8813 13.2256 54.1416 13.3989 53.7217 13.6528C53.3066 13.9067 53.0991 14.3145 53.0991 14.876C53.0991 15.3057 53.2261 15.6304 53.48 15.8501C53.7339 16.0698 54.083 16.1797 54.5273 16.1797ZM57.186 17C57.1128 16.6875 57.042 16.3506 56.9736 15.9893C56.5293 16.4336 56.1118 16.7412 55.7212 16.9121C55.3306 17.083 54.8716 17.1685 54.3442 17.1685C53.5923 17.1685 52.9868 16.9731 52.5278 16.5825C52.0737 16.187 51.8467 15.6206 51.8467 14.8833C51.8467 14.063 52.1567 13.4551 52.7769 13.0596C53.4019 12.6641 54.3003 12.4175 55.4722 12.3198C55.6333 12.3052 55.875 12.2856 56.1973 12.2612C56.5244 12.2319 56.7686 12.21 56.9297 12.1953V11.4849C56.9297 10.9185 56.7979 10.4985 56.5342 10.2251C56.2705 9.95166 55.8555 9.81494 55.2891 9.81494C54.498 9.81494 53.6997 10.0103 52.894 10.4009C52.8696 10.3423 52.8062 10.1738 52.7036 9.89551C52.6011 9.6123 52.5474 9.46582 52.5425 9.45605C52.8989 9.25586 53.3213 9.09717 53.8096 8.97998C54.3027 8.85791 54.8032 8.79688 55.311 8.79688C56.312 8.79688 57.0322 9.0166 57.4717 9.45605C57.916 9.89062 58.1382 10.6328 58.1382 11.6826V17H57.186ZM63.646 17.1685C62.4644 17.1685 61.5391 16.7852 60.8701 16.0186C60.2061 15.252 59.874 14.2485 59.874 13.0083C59.8789 11.7583 60.2183 10.7451 60.8921 9.96875C61.5708 9.1875 62.4985 8.79688 63.6753 8.79688C64.0903 8.79688 64.4907 8.84814 64.8765 8.95068C65.2671 9.05322 65.5747 9.1875 65.7993 9.35352L65.4624 10.3057C64.8911 9.99805 64.2881 9.84424 63.6533 9.84424C62.877 9.84424 62.2617 10.1274 61.8076 10.6938C61.3584 11.2603 61.1338 12.0342 61.1338 13.0156C61.1338 13.9727 61.356 14.7319 61.8003 15.2935C62.2495 15.8501 62.8696 16.1284 63.6606 16.1284C64.2905 16.1284 64.9351 15.9575 65.5942 15.6157L65.748 16.5898C65.2158 16.9756 64.5151 17.1685 63.646 17.1685ZM67.3521 17V5.84521L68.5679 5.77197V11.6094V12.6348C68.5972 12.6055 68.6411 12.5566 68.6997 12.4883C68.7583 12.4199 68.8047 12.3687 68.8389 12.3345C69.2637 11.8706 70.3623 10.7476 72.1348 8.96533H73.6875L70.3477 12.3491L73.9219 17H72.3984L69.4614 13.0449L68.5679 13.814V17H67.3521ZM82.1543 15.6963C82.8037 15.6963 83.292 15.4595 83.6191 14.9858C83.9463 14.5122 84.1099 13.8335 84.1099 12.9497C84.1099 12.0562 83.9463 11.375 83.6191 10.9062C83.292 10.4375 82.7988 10.2031 82.1396 10.2031C81.4902 10.2031 80.9995 10.4399 80.6675 10.9136C80.3403 11.3823 80.1768 12.0635 80.1768 12.957C80.1768 13.8359 80.3428 14.5122 80.6748 14.9858C81.0068 15.4595 81.5 15.6963 82.1543 15.6963ZM82.103 17.1538C80.9116 17.1538 79.9741 16.7681 79.2905 15.9966C78.6069 15.2251 78.2651 14.2095 78.2651 12.9497C78.2651 11.6509 78.6069 10.6279 79.2905 9.88086C79.9741 9.12891 80.9385 8.75293 82.1836 8.75293C83.3848 8.75293 84.3247 9.13623 85.0034 9.90283C85.687 10.6646 86.0288 11.6802 86.0288 12.9497C86.0288 14.2339 85.6846 15.2568 84.9961 16.0186C84.3076 16.7754 83.3433 17.1538 82.103 17.1538ZM87.6035 17V8.95068H89.2148L89.4639 10.1812C89.9912 9.33643 90.7554 8.91406 91.7563 8.91406C91.9663 8.91406 92.1372 8.92383 92.269 8.94336L92.2397 10.5474C92.0444 10.5181 91.8418 10.5034 91.6318 10.5034C90.9238 10.5034 90.394 10.6914 90.0425 11.0674C89.6958 11.4434 89.5225 11.9658 89.5225 12.6348V17H87.6035ZM94.9644 20.6035L94.8545 19.0508H95.8286C96.9565 19.0508 97.7451 18.8994 98.1943 18.5967C98.6436 18.2988 98.8682 17.7495 98.8682 16.9487C98.8682 16.6216 98.8535 16.2676 98.8242 15.8867C98.6973 16.0625 98.5752 16.209 98.458 16.3262C98.3457 16.4385 98.2017 16.5508 98.0259 16.6631C97.855 16.7754 97.6475 16.8608 97.4033 16.9194C97.1641 16.9731 96.8906 17 96.583 17C95.5186 17 94.6421 16.6167 93.9536 15.8501C93.27 15.0835 92.9282 14.0947 92.9282 12.8838C92.9282 12.2393 93.0234 11.6533 93.2139 11.126C93.4043 10.5938 93.6631 10.1567 93.9902 9.81494C94.3174 9.47314 94.6934 9.21191 95.1182 9.03125C95.5479 8.8457 96.0044 8.75293 96.4878 8.75293C97.5669 8.75293 98.3701 9.146 98.8975 9.93213L99.0293 8.95068H100.743V16.4287C100.743 16.8291 100.724 17.188 100.685 17.5054C100.646 17.8276 100.577 18.1353 100.479 18.4282C100.382 18.7261 100.252 18.9849 100.091 19.2046C99.9351 19.4243 99.7373 19.6245 99.498 19.8052C99.2588 19.9858 98.9756 20.1323 98.6484 20.2446C98.3262 20.3618 97.9502 20.4497 97.5205 20.5083C97.0908 20.5718 96.6074 20.6035 96.0703 20.6035H94.9644ZM96.8906 15.6597C98.2139 15.6597 98.8828 14.7734 98.8975 13.001V12.7227C98.8877 11.9268 98.7217 11.3115 98.3994 10.877C98.0771 10.4424 97.606 10.2227 96.9858 10.2178C96.2827 10.2178 95.7505 10.4595 95.3892 10.9429C95.0278 11.4214 94.8472 12.0684 94.8472 12.8838C94.8472 13.6699 95.0278 14.3291 95.3892 14.8613C95.7554 15.3936 96.2559 15.6597 96.8906 15.6597ZM104.764 17.1538C104.017 17.1538 103.412 16.9487 102.948 16.5386C102.489 16.1235 102.259 15.5278 102.259 14.7515C102.259 13.9165 102.533 13.2988 103.08 12.8984C103.626 12.4932 104.452 12.2368 105.555 12.1294C105.707 12.1099 105.87 12.0903 106.046 12.0708C106.222 12.0513 106.419 12.0317 106.639 12.0122C106.859 11.9927 107.032 11.9756 107.159 11.9609V11.5361C107.159 11.0479 107.047 10.6938 106.822 10.4741C106.598 10.2495 106.256 10.1372 105.797 10.1372C105.143 10.1372 104.334 10.3203 103.373 10.6865C103.368 10.6719 103.287 10.4497 103.131 10.02C102.975 9.59033 102.894 9.37061 102.889 9.36084C103.836 8.95557 104.862 8.75293 105.965 8.75293C107.049 8.75293 107.838 8.98975 108.331 9.46338C108.824 9.93213 109.071 10.6938 109.071 11.7485V17H107.65C107.645 16.9805 107.591 16.8169 107.489 16.5093C107.386 16.2017 107.335 16.0381 107.335 16.0186C106.935 16.4092 106.542 16.6973 106.156 16.8828C105.775 17.0635 105.311 17.1538 104.764 17.1538ZM105.284 15.7915C105.729 15.7915 106.114 15.6865 106.441 15.4766C106.773 15.2617 107.01 15.0029 107.152 14.7002V13.1475C107.137 13.1475 107.008 13.1572 106.764 13.1768C106.524 13.1963 106.395 13.2061 106.375 13.2061C105.599 13.2744 105.03 13.4209 104.669 13.6455C104.308 13.8701 104.127 14.2314 104.127 14.7295C104.127 15.0713 104.227 15.335 104.427 15.5205C104.627 15.7012 104.913 15.7915 105.284 15.7915ZM111.004 17V8.95068H112.55L112.762 9.96875C113.583 9.1582 114.493 8.75293 115.494 8.75293C116.432 8.75293 117.132 9.02393 117.596 9.56592C118.065 10.103 118.299 10.8843 118.299 11.9097V17H116.373V12.144C116.368 11.4946 116.263 11.0088 116.058 10.6865C115.853 10.3643 115.484 10.2031 114.952 10.2031C114.537 10.2031 114.156 10.3105 113.81 10.5254C113.468 10.7354 113.219 11.0015 113.062 11.3237C112.97 11.7046 112.923 12.2905 112.923 13.0815V17H111.004ZM120.233 17V8.95068H122.152V17H120.233ZM120.233 7.77881V6.13818H122.159V7.77881H120.233ZM123.661 17V15.8354L127.645 10.2837H123.851V8.95068H129.769V10.2617L125.997 15.6011H129.901V17H123.661ZM135.042 17.1538C133.749 17.1538 132.74 16.7827 132.018 16.0405C131.3 15.2935 130.941 14.2632 130.941 12.9497C130.941 11.6704 131.28 10.6523 131.959 9.89551C132.638 9.13867 133.563 8.75781 134.735 8.75293C135.843 8.75293 136.703 9.09961 137.313 9.79297C137.928 10.4863 138.236 11.4067 138.236 12.5542C138.236 12.6372 138.233 12.7715 138.229 12.957C138.229 13.1426 138.229 13.2793 138.229 13.3672H132.875C132.894 14.1191 133.099 14.7026 133.49 15.1177C133.885 15.5278 134.427 15.7329 135.116 15.7329C135.995 15.7329 136.839 15.5034 137.65 15.0444L137.921 16.4067C137.115 16.9048 136.156 17.1538 135.042 17.1538ZM132.911 12.1587H136.427C136.427 11.5044 136.278 11.0015 135.98 10.6499C135.682 10.2983 135.27 10.1226 134.742 10.1226C134.249 10.1226 133.832 10.2935 133.49 10.6353C133.153 10.9771 132.96 11.4849 132.911 12.1587ZM139.811 17V8.95068H141.422L141.671 10.1812C142.198 9.33643 142.962 8.91406 143.963 8.91406C144.173 8.91406 144.344 8.92383 144.476 8.94336L144.447 10.5474C144.251 10.5181 144.049 10.5034 143.839 10.5034C143.131 10.5034 142.601 10.6914 142.25 11.0674C141.903 11.4434 141.729 11.9658 141.729 12.6348V17H139.811Z" fill="white"/>
<path d="M0 25V10.7456H5.57413V18.631H24.3502V10.7456H31V25H0Z" fill="black"/>
<rect x="6.36987" y="14.4737" width="17.1986" height="4.16667" fill="#30AFFF"/>
<rect x="6.36987" y="9.64911" width="17.1986" height="4.16667" fill="#30AFFF"/>
<rect x="6.36987" y="4.82455" width="17.1986" height="4.16667" fill="#30AFFF"/>
<rect x="6.36987" width="17.1986" height="3.94737" fill="#30AFFF"/>
</svg>
