<svg width="268" height="39" viewBox="0 0 268 39" fill="none" xmlns="http://www.w3.org/2000/svg">
<path d="M0 37V20.4649H6.653V29.612H29.0631V20.4649H37V37H0Z" fill="#030303"/>
<rect x="7.60272" y="24.7895" width="20.5274" height="4.83333" fill="#30AFFF"/>
<rect x="7.60272" y="19.193" width="20.5274" height="4.83333" fill="#30AFFF"/>
<rect x="7.60272" y="13.5965" width="20.5274" height="4.83333" fill="#30AFFF"/>
<rect x="7.60272" y="8" width="20.5274" height="4.57895" fill="#30AFFF"/>
<path d="M61.2109 31.3369C60.1172 31.3369 59.1064 31.2197 58.1787 30.9854C57.2607 30.751 56.5137 30.4482 55.9375 30.0771L56.2451 28.0117C57.876 28.8809 59.4775 29.3154 61.0498 29.3154C63.4326 29.3154 64.6582 28.4756 64.7266 26.7959C64.7266 26.083 64.4727 25.5215 63.9648 25.1113C63.457 24.7012 62.4609 24.2422 60.9766 23.7344L59.7607 23.3096C58.3545 22.8408 57.3486 22.2598 56.7432 21.5664C56.1475 20.873 55.8447 20.0088 55.835 18.9736C55.835 17.7139 56.3379 16.6689 57.3438 15.8389C58.3594 15.0088 59.7461 14.5938 61.5039 14.5938C63.3203 14.5938 64.9756 14.9453 66.4697 15.6484L65.752 17.5234C64.2383 16.8984 62.8223 16.5859 61.5039 16.5859C60.4785 16.5859 59.6729 16.791 59.0869 17.2012C58.5107 17.6016 58.2227 18.168 58.2227 18.9004C58.2227 19.5254 58.4326 20.0039 58.8525 20.3359C59.2725 20.668 60.1123 21.0488 61.3721 21.4785C61.6943 21.5957 62.0996 21.7324 62.5879 21.8887C64.209 22.416 65.3564 23.041 66.0303 23.7637C66.7041 24.4766 67.041 25.4434 67.041 26.6641C67.0215 28.1484 66.4893 29.3008 65.4443 30.1211C64.3994 30.9316 62.9883 31.3369 61.2109 31.3369ZM75.5225 31.293C73.9404 31.293 72.8174 30.9072 72.1533 30.1357C71.4893 29.3643 71.1377 28.1191 71.0986 26.4004V16.7471H68.7109L68.8135 15.1357L71.084 14.9307L71.9189 11.2539L73.5303 11.1953V14.9307H77.998V16.7471H73.5303V25.9609C73.5303 27.1816 73.7158 28.041 74.0869 28.5391C74.458 29.0371 75.0928 29.2861 75.9912 29.2861C76.3135 29.2861 77.0117 29.208 78.0859 29.0518L78.1885 30.9854C77.0264 31.1904 76.1377 31.293 75.5225 31.293ZM85.3809 29.3594C86.543 29.3594 87.5635 29.042 88.4424 28.4072C89.3311 27.7627 89.9023 26.8984 90.1562 25.8145V23.1045C90.1074 23.1045 89.8096 23.1289 89.2627 23.1777C88.7256 23.2266 88.374 23.2559 88.208 23.2656C86.0889 23.4512 84.6094 23.7979 83.7695 24.3057C82.9395 24.8135 82.5244 25.6289 82.5244 26.752C82.5244 27.6113 82.7783 28.2607 83.2861 28.7002C83.7939 29.1396 84.4922 29.3594 85.3809 29.3594ZM90.6982 31C90.5518 30.375 90.4102 29.7012 90.2734 28.9785C89.3848 29.8672 88.5498 30.4824 87.7686 30.8242C86.9873 31.166 86.0693 31.3369 85.0146 31.3369C83.5107 31.3369 82.2998 30.9463 81.3818 30.165C80.4736 29.374 80.0195 28.2412 80.0195 26.7666C80.0195 25.126 80.6396 23.9102 81.8799 23.1191C83.1299 22.3281 84.9268 21.835 87.2705 21.6396C87.5928 21.6104 88.0762 21.5713 88.7207 21.5225C89.375 21.4639 89.8633 21.4199 90.1855 21.3906V19.9697C90.1855 18.8369 89.9219 17.9971 89.3945 17.4502C88.8672 16.9033 88.0371 16.6299 86.9043 16.6299C85.3223 16.6299 83.7256 17.0205 82.1143 17.8018C82.0654 17.6846 81.9385 17.3477 81.7334 16.791C81.5283 16.2246 81.4209 15.9316 81.4111 15.9121C82.124 15.5117 82.9688 15.1943 83.9453 14.96C84.9316 14.7158 85.9326 14.5938 86.9482 14.5938C88.9502 14.5938 90.3906 15.0332 91.2695 15.9121C92.1582 16.7812 92.6025 18.2656 92.6025 20.3652V31H90.6982ZM103.618 31.3369C101.255 31.3369 99.4043 30.5703 98.0664 29.0371C96.7383 27.5039 96.0742 25.4971 96.0742 23.0166C96.084 20.5166 96.7627 18.4902 98.1104 16.9375C99.4678 15.375 101.323 14.5938 103.677 14.5938C104.507 14.5938 105.308 14.6963 106.079 14.9014C106.86 15.1064 107.476 15.375 107.925 15.707L107.251 17.6113C106.108 16.9961 104.902 16.6885 103.633 16.6885C102.08 16.6885 100.85 17.2549 99.9414 18.3877C99.043 19.5205 98.5938 21.0684 98.5938 23.0312C98.5938 24.9453 99.0381 26.4639 99.9268 27.5869C100.825 28.7002 102.065 29.2568 103.647 29.2568C104.907 29.2568 106.196 28.915 107.515 28.2314L107.822 30.1797C106.758 30.9512 105.356 31.3369 103.618 31.3369ZM111.03 31V8.69043L113.462 8.54395V20.2188V22.2695C113.521 22.2109 113.608 22.1133 113.726 21.9766C113.843 21.8398 113.936 21.7373 114.004 21.6689C114.854 20.7412 117.051 18.4951 120.596 14.9307H123.701L117.021 21.6982L124.17 31H121.123L115.249 23.0898L113.462 24.6279V31H111.03Z" fill="black"/>
<path d="M140.635 28.3926C141.934 28.3926 142.91 27.9189 143.564 26.9717C144.219 26.0244 144.546 24.667 144.546 22.8994C144.546 21.1123 144.219 19.75 143.564 18.8125C142.91 17.875 141.924 17.4062 140.605 17.4062C139.307 17.4062 138.325 17.8799 137.661 18.8271C137.007 19.7646 136.68 21.127 136.68 22.9141C136.68 24.6719 137.012 26.0244 137.676 26.9717C138.34 27.9189 139.326 28.3926 140.635 28.3926ZM140.532 31.3076C138.149 31.3076 136.274 30.5361 134.907 28.9932C133.54 27.4502 132.856 25.4189 132.856 22.8994C132.856 20.3018 133.54 18.2559 134.907 16.7617C136.274 15.2578 138.203 14.5059 140.693 14.5059C143.096 14.5059 144.976 15.2725 146.333 16.8057C147.7 18.3291 148.384 20.3604 148.384 22.8994C148.384 25.4678 147.695 27.5137 146.318 29.0371C144.941 30.5508 143.013 31.3076 140.532 31.3076ZM151.533 31V14.9014H154.756L155.254 17.3623C156.309 15.6729 157.837 14.8281 159.839 14.8281C160.259 14.8281 160.601 14.8477 160.864 14.8867L160.806 18.0947C160.415 18.0361 160.01 18.0068 159.59 18.0068C158.174 18.0068 157.114 18.3828 156.411 19.1348C155.718 19.8867 155.371 20.9316 155.371 22.2695V31H151.533ZM166.255 38.207L166.035 35.1016H167.983C170.239 35.1016 171.816 34.7988 172.715 34.1934C173.613 33.5977 174.062 32.499 174.062 30.8975C174.062 30.2432 174.033 29.5352 173.975 28.7734C173.721 29.125 173.477 29.418 173.242 29.6523C173.018 29.877 172.729 30.1016 172.378 30.3262C172.036 30.5508 171.621 30.7217 171.133 30.8389C170.654 30.9463 170.107 31 169.492 31C167.363 31 165.61 30.2334 164.233 28.7002C162.866 27.167 162.183 25.1895 162.183 22.7676C162.183 21.4785 162.373 20.3066 162.754 19.252C163.135 18.1875 163.652 17.3135 164.307 16.6299C164.961 15.9463 165.713 15.4238 166.562 15.0625C167.422 14.6914 168.335 14.5059 169.302 14.5059C171.46 14.5059 173.066 15.292 174.121 16.8643L174.385 14.9014H177.812V29.8574C177.812 30.6582 177.773 31.376 177.695 32.0107C177.617 32.6553 177.48 33.2705 177.285 33.8564C177.09 34.4521 176.831 34.9697 176.509 35.4092C176.196 35.8486 175.801 36.249 175.322 36.6104C174.844 36.9717 174.277 37.2646 173.623 37.4893C172.979 37.7236 172.227 37.8994 171.367 38.0166C170.508 38.1436 169.541 38.207 168.467 38.207H166.255ZM170.107 28.3193C172.754 28.3193 174.092 26.5469 174.121 23.002V22.4453C174.102 20.8535 173.77 19.623 173.125 18.7539C172.48 17.8848 171.538 17.4453 170.298 17.4355C168.892 17.4355 167.827 17.9189 167.104 18.8857C166.382 19.8428 166.021 21.1367 166.021 22.7676C166.021 24.3398 166.382 25.6582 167.104 26.7227C167.837 27.7871 168.838 28.3193 170.107 28.3193ZM185.854 31.3076C184.36 31.3076 183.149 30.8975 182.222 30.0771C181.304 29.2471 180.845 28.0557 180.845 26.5029C180.845 24.833 181.392 23.5977 182.485 22.7969C183.579 21.9863 185.229 21.4736 187.437 21.2588C187.739 21.2197 188.066 21.1807 188.418 21.1416C188.77 21.1025 189.165 21.0635 189.604 21.0244C190.044 20.9854 190.391 20.9512 190.645 20.9219V20.0723C190.645 19.0957 190.42 18.3877 189.971 17.9482C189.521 17.499 188.838 17.2744 187.92 17.2744C186.611 17.2744 184.995 17.6406 183.071 18.373C183.062 18.3438 182.9 17.8994 182.588 17.04C182.275 16.1807 182.114 15.7412 182.104 15.7217C183.999 14.9111 186.05 14.5059 188.257 14.5059C190.425 14.5059 192.002 14.9795 192.988 15.9268C193.975 16.8643 194.468 18.3877 194.468 20.4971V31H191.626C191.616 30.9609 191.509 30.6338 191.304 30.0186C191.099 29.4033 190.996 29.0762 190.996 29.0371C190.195 29.8184 189.409 30.3945 188.638 30.7656C187.876 31.127 186.948 31.3076 185.854 31.3076ZM186.895 28.583C187.783 28.583 188.555 28.373 189.209 27.9531C189.873 27.5234 190.347 27.0059 190.63 26.4004V23.2949C190.601 23.2949 190.342 23.3145 189.854 23.3535C189.375 23.3926 189.116 23.4121 189.077 23.4121C187.524 23.5488 186.387 23.8418 185.664 24.291C184.941 24.7402 184.58 25.4629 184.58 26.459C184.58 27.1426 184.78 27.6699 185.181 28.041C185.581 28.4023 186.152 28.583 186.895 28.583ZM198.335 31V14.9014H201.426L201.851 16.9375C203.491 15.3164 205.312 14.5059 207.314 14.5059C209.189 14.5059 210.591 15.0479 211.519 16.1318C212.456 17.2061 212.925 18.7686 212.925 20.8193V31H209.072V21.2881C209.062 19.9893 208.853 19.0176 208.442 18.373C208.032 17.7285 207.295 17.4062 206.23 17.4062C205.4 17.4062 204.639 17.6211 203.945 18.0508C203.262 18.4707 202.764 19.0029 202.451 19.6475C202.266 20.4092 202.173 21.5811 202.173 23.1631V31H198.335ZM216.792 31V14.9014H220.63V31H216.792ZM216.792 12.5576V9.27637H220.645V12.5576H216.792ZM223.647 31V28.6709L231.616 17.5674H224.028V14.9014H235.864V17.5234L228.32 28.2021H236.128V31H223.647ZM246.411 31.3076C243.823 31.3076 241.807 30.5654 240.361 29.0811C238.926 27.5869 238.208 25.5264 238.208 22.8994C238.208 20.3408 238.887 18.3047 240.244 16.791C241.602 15.2773 243.452 14.5156 245.796 14.5059C248.013 14.5059 249.731 15.1992 250.952 16.5859C252.183 17.9727 252.798 19.8135 252.798 22.1084C252.798 22.2744 252.793 22.543 252.783 22.9141C252.783 23.2852 252.783 23.5586 252.783 23.7344H242.075C242.114 25.2383 242.524 26.4053 243.306 27.2354C244.097 28.0557 245.181 28.4658 246.558 28.4658C248.315 28.4658 250.005 28.0068 251.626 27.0889L252.168 29.8135C250.557 30.8096 248.638 31.3076 246.411 31.3076ZM242.148 21.3174H249.18C249.18 20.0088 248.882 19.0029 248.286 18.2998C247.69 17.5967 246.865 17.2451 245.811 17.2451C244.824 17.2451 243.989 17.5869 243.306 18.2705C242.632 18.9541 242.246 19.9697 242.148 21.3174ZM255.947 31V14.9014H259.17L259.668 17.3623C260.723 15.6729 262.251 14.8281 264.253 14.8281C264.673 14.8281 265.015 14.8477 265.278 14.8867L265.22 18.0947C264.829 18.0361 264.424 18.0068 264.004 18.0068C262.588 18.0068 261.528 18.3828 260.825 19.1348C260.132 19.8867 259.785 20.9316 259.785 22.2695V31H255.947Z" fill="#1C5274"/>
</svg>
