<svg width="331" height="240" viewBox="0 0 331 240" fill="none" xmlns="http://www.w3.org/2000/svg">
<g clip-path="url(#clip0_441_1258)">
<path d="M179.117 44.695C179.036 53.9956 178.354 63.2811 177.077 72.494C177.033 72.8175 176.984 73.141 176.939 73.4645L89.8168 72.9779C89.561 72.6566 89.3092 72.3314 89.0653 72.0023C88.2519 70.9133 87.4895 69.7933 86.7897 68.6347C83.426 63.0531 81.8861 56.5181 83.4293 52.0094L83.4569 51.9393C83.79 50.952 84.3149 50.0402 85.0015 49.2562C88.5198 45.2968 95.6336 45.9568 102.089 49.1527C96.2989 42.8163 91.6884 34.8208 91.3381 27.6839C90.9946 20.7226 94.6356 15.7496 98.5847 11.5234C98.7143 11.3837 98.8439 11.2479 98.9734 11.1121C99.0363 11.0422 99.103 10.9763 99.1657 10.9064C102.247 7.68579 105.839 4.51092 111.038 4.89498C116.741 5.31693 123.063 10.092 127.496 15.6562C131.928 21.2165 134.874 27.5331 137.86 33.6977C140.85 39.8585 144.084 46.1768 148.882 51.4426C142.384 43.2259 137.145 33.8771 135.21 24.7847C133.274 15.6923 134.977 6.9597 140.769 2.67752C142.527 1.41757 144.561 0.596918 146.702 0.284235C146.951 0.242725 147.205 0.209029 147.463 0.179253C152.824 -0.430548 159.225 1.42307 164.671 5.85382C170.668 10.7324 174.826 17.9647 176.895 24.8303C178.964 31.696 179.184 38.3055 179.117 44.695Z" fill="#F2F2F2"/>
<path d="M122.117 73.1583L120.451 73.149C119.922 72.8184 119.391 72.4916 118.857 72.1687C118.526 71.9602 118.192 71.7593 117.857 71.5546C112.331 68.1806 106.771 64.9442 101.176 61.8454C95.5856 58.7441 89.9675 55.7856 84.3213 52.9701C84.1716 52.9049 84.0495 52.7894 83.9762 52.6436C83.9029 52.4978 83.883 52.331 83.9199 52.172C83.926 52.1512 83.9354 52.1315 83.9477 52.1137C84.0265 51.9659 84.2025 51.9044 84.4594 52.0307C85.1519 52.3779 85.8484 52.725 86.5409 53.08C92.2025 55.9438 97.8398 58.9504 103.453 62.1C109.062 65.2482 114.639 68.5355 120.184 71.9616C120.301 72.0325 120.418 72.1073 120.534 72.1781C121.063 72.5049 121.588 72.8316 122.117 73.1583Z" fill="white"/>
<path d="M143.597 73.2783L142.567 73.2725C142.335 72.9475 142.106 72.6224 141.874 72.2973C136.415 64.6442 130.957 56.9912 125.501 49.3381C116.565 36.8088 107.631 24.2796 98.7007 11.7503C98.6477 11.6829 98.6084 11.6058 98.5848 11.5234C98.5084 11.246 98.7122 11.0833 98.9735 11.1121C99.0836 11.1278 99.1891 11.1669 99.283 11.2266C99.3769 11.2863 99.4569 11.3653 99.5178 11.4584C104.528 18.4848 109.536 25.5086 114.544 32.5298C123.433 44.9964 132.322 57.4617 141.208 69.9256C141.774 70.7168 142.339 71.5119 142.904 72.303C143.136 72.6281 143.369 72.9532 143.597 73.2783Z" fill="white"/>
<path d="M166.547 67.2975C166.495 69.0332 166.38 70.7412 166.23 72.4334C166.201 72.757 166.172 73.0806 166.142 73.4043L165.062 73.3982C165.095 73.0746 165.128 72.751 165.157 72.4274C165.385 69.9827 165.547 67.5104 165.569 64.971C165.598 57.9304 164.912 50.9052 163.521 44.0033C162.043 36.5718 159.92 29.2831 157.177 22.2197C154.298 14.77 150.827 7.56276 146.797 0.667067C146.721 0.554678 146.687 0.419099 146.702 0.284239C146.746 -0.0237061 147.156 -0.115031 147.463 0.179257C147.524 0.236995 147.576 0.302939 147.618 0.375168C148.116 1.23228 148.606 2.09194 149.086 2.95415C152.968 9.88812 156.29 17.1204 159.021 24.5823C161.623 31.6688 163.602 38.9685 164.936 46.3986C166.185 53.2916 166.725 60.2945 166.547 67.2975Z" fill="white"/>
<path d="M240.254 72.7426H3.40243C2.50029 72.7434 1.63532 73.1021 0.997416 73.7398C0.359511 74.3776 0.000791415 75.2423 0 76.1442V236.598C0.000791415 237.5 0.359511 238.365 0.997416 239.003C1.63532 239.64 2.50029 239.999 3.40243 240H240.254C240.746 240 241.232 239.893 241.678 239.687C242.125 239.481 242.522 239.181 242.841 238.806C242.868 238.777 242.893 238.746 242.915 238.713C243.118 238.464 243.282 238.187 243.403 237.89C243.574 237.481 243.661 237.042 243.66 236.598V76.1443C243.659 75.2417 243.3 74.3765 242.661 73.7387C242.022 73.1008 241.156 72.7426 240.254 72.7426V72.7426ZM242.689 236.598C242.689 237.073 242.549 237.537 242.286 237.932C242.053 238.281 241.737 238.565 241.366 238.759C241.022 238.937 240.641 239.029 240.254 239.029H3.40243C2.75795 239.028 2.14008 238.772 1.68436 238.316C1.22864 237.86 0.972268 237.243 0.971486 236.598V76.1443C0.972268 75.5 1.22864 74.8823 1.68436 74.4267C2.14008 73.9711 2.75795 73.7148 3.40243 73.714H240.254C240.899 73.7139 241.517 73.9698 241.974 74.4255C242.431 74.8811 242.688 75.4993 242.689 76.1443V236.598Z" fill="#3F3D56"/>
<path d="M243.172 86.3762H0.484863V87.3486H243.172V86.3762Z" fill="#3F3D56"/>
<path d="M8.7528 82.9532C10.3644 82.9532 11.6709 81.6471 11.6709 80.0359C11.6709 78.4247 10.3644 77.1186 8.7528 77.1186C7.14119 77.1186 5.83472 78.4247 5.83472 80.0359C5.83472 81.6471 7.14119 82.9532 8.7528 82.9532Z" fill="#3F3D56"/>
<path d="M17.1423 82.9532C18.7539 82.9532 20.0604 81.6471 20.0604 80.0359C20.0604 78.4247 18.7539 77.1186 17.1423 77.1186C15.5307 77.1186 14.2242 78.4247 14.2242 80.0359C14.2242 81.6471 15.5307 82.9532 17.1423 82.9532Z" fill="#3F3D56"/>
<path d="M25.5317 82.9532C27.1433 82.9532 28.4498 81.6471 28.4498 80.0359C28.4498 78.4247 27.1433 77.1186 25.5317 77.1186C23.9201 77.1186 22.6136 78.4247 22.6136 80.0359C22.6136 81.6471 23.9201 82.9532 25.5317 82.9532Z" fill="#3F3D56"/>
<path d="M182.738 108.886H60.9958C59.6504 108.886 58.3602 108.351 57.4089 107.4C56.4576 106.449 55.9232 105.159 55.9232 103.814C55.9232 102.47 56.4576 101.18 57.4089 100.229C58.3602 99.2775 59.6504 98.7433 60.9958 98.7433H182.738C184.083 98.7433 185.374 99.2775 186.325 100.229C187.276 101.18 187.811 102.47 187.811 103.814C187.811 105.159 187.276 106.449 186.325 107.4C185.374 108.351 184.083 108.886 182.738 108.886V108.886ZM60.9958 99.5234C59.8574 99.5234 58.7656 99.9755 57.9607 100.78C57.1558 101.585 56.7036 102.676 56.7036 103.814C56.7036 104.953 57.1558 106.044 57.9607 106.849C58.7656 107.653 59.8574 108.106 60.9958 108.106H182.738C183.876 108.106 184.968 107.653 185.773 106.849C186.578 106.044 187.03 104.953 187.03 103.814C187.03 102.676 186.578 101.585 185.773 100.78C184.968 99.9755 183.876 99.5234 182.738 99.5234H60.9958Z" fill="#3F3D56"/>
<path d="M71.104 168.421H24.2801C22.5214 168.419 20.8353 167.72 19.5917 166.477C18.3482 165.233 17.6486 163.548 17.6467 161.79V139.944C17.6486 138.186 18.3482 136.5 19.5917 135.257C20.8353 134.014 22.5214 133.315 24.2801 133.313H71.104C72.8627 133.315 74.5488 134.014 75.7923 135.257C77.0359 136.5 77.7354 138.186 77.7374 139.944V161.79C77.7354 163.548 77.0359 165.233 75.7923 166.477C74.5488 167.72 72.8627 168.419 71.104 168.421V168.421Z" fill="#1C5274"/>
<path d="M145.242 168.421H98.418C96.6594 168.419 94.9733 167.72 93.7297 166.477C92.4861 165.233 91.7866 163.548 91.7846 161.79V139.944C91.7866 138.186 92.4861 136.5 93.7297 135.257C94.9733 134.014 96.6594 133.315 98.418 133.313H145.242C147.001 133.315 148.687 134.014 149.93 135.257C151.174 136.5 151.873 138.186 151.875 139.944V161.79C151.873 163.548 151.174 165.233 149.93 166.477C148.687 167.72 147.001 168.419 145.242 168.421V168.421Z" fill="#1C5274"/>
<path d="M219.38 168.421H172.556C170.797 168.419 169.111 167.72 167.868 166.477C166.624 165.233 165.925 163.548 165.923 161.79V139.944C165.925 138.186 166.624 136.5 167.868 135.257C169.111 134.014 170.797 133.315 172.556 133.313H219.38C221.139 133.315 222.825 134.014 224.068 135.257C225.312 136.5 226.011 138.186 226.013 139.944V161.79C226.011 163.548 225.312 165.233 224.068 166.477C222.825 167.72 221.139 168.419 219.38 168.421V168.421Z" fill="#1C5274"/>
<path d="M71.104 214.453H24.2801C22.5214 214.451 20.8353 213.751 19.5917 212.508C18.3482 211.265 17.6486 209.579 17.6467 207.821V185.976C17.6486 184.217 18.3482 182.532 19.5917 181.288C20.8353 180.045 22.5214 179.346 24.2801 179.344H71.104C72.8627 179.346 74.5488 180.045 75.7923 181.288C77.0359 182.532 77.7354 184.217 77.7374 185.976V207.821C77.7354 209.579 77.0359 211.265 75.7923 212.508C74.5488 213.751 72.8627 214.451 71.104 214.453V214.453Z" fill="#1C5274"/>
<path d="M145.242 214.453H98.418C96.6594 214.451 94.9733 213.751 93.7297 212.508C92.4861 211.265 91.7866 209.579 91.7846 207.821V185.976C91.7866 184.217 92.4861 182.532 93.7297 181.288C94.9733 180.045 96.6594 179.346 98.418 179.344H145.242C147.001 179.346 148.687 180.045 149.93 181.288C151.174 182.532 151.873 184.217 151.875 185.976V207.821C151.873 209.579 151.174 211.265 149.93 212.508C148.687 213.751 147.001 214.451 145.242 214.453V214.453Z" fill="#1C5274"/>
<path d="M219.38 214.453H172.556C170.797 214.451 169.111 213.751 167.868 212.508C166.624 211.265 165.925 209.579 165.923 207.821V185.976C165.925 184.217 166.624 182.532 167.868 181.288C169.111 180.045 170.797 179.346 172.556 179.344H219.38C221.139 179.346 222.825 180.045 224.068 181.288C225.312 182.532 226.011 184.217 226.013 185.976V207.821C226.011 209.579 225.312 211.265 224.068 212.508C222.825 213.751 221.139 214.451 219.38 214.453V214.453Z" fill="#1C5274"/>
<path d="M272.014 109.907C279.125 109.907 284.89 104.143 284.89 97.0338C284.89 89.9241 279.125 84.1606 272.014 84.1606C264.902 84.1606 259.137 89.9241 259.137 97.0338C259.137 104.143 264.902 109.907 272.014 109.907Z" fill="#2F2E41"/>
<path d="M239.755 164.001C239.47 163.459 239.307 162.861 239.278 162.249C239.249 161.637 239.354 161.026 239.587 160.459C239.82 159.892 240.174 159.383 240.624 158.968C241.075 158.553 241.611 158.242 242.195 158.056L258.512 123.549L265.976 128.781L247.59 161.055C247.837 162.057 247.707 163.114 247.227 164.027C246.746 164.94 245.947 165.644 244.981 166.007C244.016 166.37 242.95 166.367 241.987 165.997C241.024 165.627 240.23 164.917 239.755 164.001V164.001Z" fill="#FFB8B8"/>
<path d="M253.737 128.13C253.659 127.872 253.638 127.599 253.675 127.332C253.713 127.064 253.807 126.808 253.952 126.58L259.026 118.629C259.589 117.368 260.631 116.382 261.921 115.887C263.211 115.392 264.645 115.429 265.908 115.989C267.171 116.549 268.16 117.587 268.659 118.876C269.158 120.164 269.125 121.598 268.568 122.862L266.013 131.972C265.94 132.232 265.812 132.473 265.637 132.679C265.462 132.885 265.245 133.051 265.001 133.166C264.756 133.28 264.49 133.341 264.22 133.343C263.95 133.346 263.682 133.29 263.436 133.18L254.77 129.306C254.523 129.196 254.303 129.034 254.125 128.831C253.947 128.628 253.814 128.389 253.737 128.13V128.13Z" fill="#1C5274"/>
<path d="M294.792 167.422C294.195 167.284 293.636 167.016 293.153 166.638C292.671 166.26 292.278 165.781 292.001 165.234C291.724 164.688 291.57 164.087 291.55 163.475C291.531 162.862 291.646 162.253 291.887 161.69L276.434 126.787L285.274 124.561L297.684 159.57C298.603 160.038 299.319 160.826 299.696 161.787C300.072 162.747 300.083 163.812 299.727 164.78C299.37 165.748 298.671 166.552 297.761 167.039C296.852 167.526 295.795 167.662 294.792 167.422V167.422Z" fill="#FFB8B8"/>
<path d="M299.004 230.686L294.509 232.323L286.057 215.768L292.691 213.353L299.004 230.686Z" fill="#FFB8B8"/>
<path d="M290.831 232.207L299.5 229.052L301.487 234.509L287.36 239.651C287.099 238.934 286.982 238.173 287.015 237.412C287.048 236.65 287.231 235.902 287.553 235.211C287.876 234.519 288.331 233.898 288.893 233.383C289.456 232.868 290.114 232.468 290.831 232.207Z" fill="#2F2E41"/>
<path d="M286.733 220.215L269.608 190.255C269.443 189.965 269.357 189.636 269.361 189.302C269.365 188.969 269.457 188.642 269.628 188.355L277.34 175.507C277.523 175.202 277.788 174.955 278.106 174.795C278.423 174.636 278.779 174.569 279.133 174.603C279.487 174.638 279.824 174.772 280.105 174.99C280.385 175.208 280.598 175.501 280.719 175.835L295.298 216.198C295.459 216.637 295.449 217.12 295.271 217.553C295.092 217.985 294.759 218.335 294.335 218.534L289.169 220.98C288.92 221.098 288.648 221.16 288.372 221.159C288.04 221.16 287.713 221.073 287.425 220.907C287.138 220.741 286.899 220.502 286.733 220.215V220.215Z" fill="#2F2E41"/>
<path d="M270.842 111.099C276.135 111.099 280.425 106.81 280.425 101.518C280.425 96.2266 276.135 91.937 270.842 91.937C265.549 91.937 261.258 96.2266 261.258 101.518C261.258 106.81 265.549 111.099 270.842 111.099Z" fill="#FFB8B8"/>
<path d="M257.21 144.917C249.663 128.186 257.271 118.835 260.893 115.592C261.936 114.656 263.288 114.139 264.69 114.14H278.19C279.16 114.14 280.113 114.388 280.96 114.86C281.807 115.332 282.519 116.012 283.029 116.837C283.538 117.661 283.829 118.602 283.872 119.571C283.916 120.539 283.711 121.502 283.278 122.369L274.252 140.415L257.283 145.08L257.21 144.917Z" fill="#1C5274"/>
<path d="M276.961 133.042C276.714 132.932 276.494 132.77 276.316 132.567C276.138 132.364 276.006 132.125 275.929 131.866L273.227 122.831C272.642 121.58 272.576 120.148 273.045 118.849C273.514 117.55 274.479 116.489 275.728 115.9C276.978 115.311 278.41 115.241 279.711 115.706C281.012 116.17 282.075 117.131 282.669 118.378L287.894 126.267C288.043 126.492 288.142 126.747 288.183 127.014C288.225 127.28 288.209 127.553 288.136 127.813C288.063 128.073 287.935 128.314 287.76 128.52C287.585 128.726 287.368 128.892 287.123 129.006L278.526 133.029C278.281 133.144 278.015 133.205 277.745 133.207C277.475 133.209 277.207 133.153 276.961 133.042V133.042Z" fill="#1C5274"/>
<path d="M268.124 235.21L263.341 235.21L261.065 216.763L268.125 216.763L268.124 235.21Z" fill="#FFB8B8"/>
<path d="M259.924 233.843H269.149V239.651H254.115C254.115 238.888 254.265 238.133 254.557 237.428C254.849 236.724 255.277 236.083 255.816 235.544C256.355 235.005 256.996 234.577 257.701 234.285C258.405 233.994 259.161 233.843 259.924 233.843V233.843Z" fill="#2F2E41"/>
<path d="M266.097 228.168L258.438 227.285C258.19 227.256 257.951 227.178 257.733 227.056C257.516 226.934 257.325 226.77 257.171 226.573C257.018 226.376 256.905 226.151 256.84 225.91C256.774 225.669 256.758 225.418 256.791 225.17L263.626 173.717C263.65 173.538 263.64 173.355 263.598 173.18L256.727 144.841C256.662 144.58 256.655 144.308 256.706 144.043C256.756 143.779 256.864 143.528 257.021 143.31C258.087 141.841 261.737 138.419 272.596 138.354H272.608C272.969 138.354 273.323 138.458 273.627 138.654C273.932 138.849 274.173 139.128 274.323 139.457L275.772 142.643C275.88 142.879 276.048 143.083 276.261 143.233C278.254 144.644 287.913 152.563 282.242 169.95C276.668 187.039 269.526 220.215 268.151 226.693C268.063 227.114 267.833 227.491 267.499 227.762C267.165 228.034 266.748 228.181 266.318 228.181C266.244 228.181 266.171 228.176 266.097 228.168V228.168Z" fill="#2F2E41"/>
<path d="M280.912 95.4916C278.722 97.0006 276.123 97.8037 273.463 97.7931C274.412 98.4508 275.492 98.895 276.629 99.0952C273.092 99.8536 269.437 99.8741 265.893 99.1555C265.105 99.0292 264.345 98.7682 263.645 98.3838C263.297 98.1893 262.993 97.9236 262.754 97.604C262.515 97.2845 262.346 96.9182 262.258 96.529C262.023 95.1838 263.071 93.9616 264.161 93.1379C265.829 91.896 267.753 91.0404 269.792 90.6329C271.832 90.2254 273.937 90.2763 275.954 90.7818C277.272 91.1223 278.591 91.6975 279.447 92.7552C280.303 93.8129 280.556 95.4436 279.741 96.5327L280.912 95.4916Z" fill="#2F2E41"/>
<path d="M274.513 88.8268C273.418 88.4624 272.292 88.0802 271.424 87.3196C270.557 86.5591 270.006 85.3151 270.396 84.2294C270.772 83.1834 271.916 82.5723 273.025 82.49C274.134 82.4078 275.225 82.7509 276.284 83.0898C275.805 82.3665 275.31 80.9641 274.877 79.485C273.889 76.11 278.007 73.0279 281.515 73.2823C281.618 73.2898 281.718 73.3005 281.815 73.3145C285.353 73.8305 287.188 75.1796 289.658 77.7628C292.749 80.9943 294.366 85.3545 295.448 89.6926C296.53 94.0307 297.166 98.4948 298.688 102.699C300.211 106.903 302.779 110.944 306.706 113.084C308.856 114.217 311.277 114.737 313.704 114.588C316.13 114.438 318.469 113.625 320.464 112.236C320.736 114.082 320.568 115.967 319.975 117.736C319.383 119.506 318.381 121.111 317.052 122.421C315.723 123.731 314.104 124.71 312.326 125.277C310.547 125.845 308.661 125.986 306.818 125.688C301.748 124.87 297.687 120.788 295.518 116.134C293.349 111.481 292.757 106.272 292.213 101.168C291.669 96.0627 291.117 90.8558 289.019 86.1702C288.17 84.2739 286.919 82.3438 284.685 82.0412C284.101 81.9461 283.503 82.0458 282.982 82.3249C282.461 82.6041 282.046 83.0471 281.803 83.5855C280.82 85.9627 284.181 87.9757 283.32 90.2411C283.134 90.6796 282.825 91.0554 282.432 91.3241C282.038 91.5929 281.576 91.7432 281.099 91.7574C279.474 91.8642 278.14 90.9333 276.882 90.0347C274.31 88.1963 274.513 88.8268 274.513 88.8268Z" fill="#2F2E41"/>
<path d="M330.61 240H240.864C240.76 240 240.661 239.959 240.588 239.886C240.515 239.813 240.474 239.713 240.474 239.61C240.474 239.506 240.515 239.407 240.588 239.334C240.661 239.261 240.76 239.22 240.864 239.22H330.61C330.713 239.22 330.813 239.261 330.886 239.334C330.959 239.407 331 239.506 331 239.61C331 239.713 330.959 239.813 330.886 239.886C330.813 239.959 330.713 240 330.61 240Z" fill="#3F3D56"/>
</g>
<defs>
<clipPath id="clip0_441_1258">
<rect width="331" height="240" fill="white"/>
</clipPath>
</defs>
</svg>
